<svg width="46" height="70" viewBox="0 0 46 70" fill="none" xmlns="http://www.w3.org/2000/svg">
<circle cx="34.5" cy="35" r="11.5" fill="#1ABCFE"/>
<path d="M0 12C0 5.64873 5.14873 0.5 11.5 0.5H23V23.5H11.5C5.14873 23.5 0 18.3513 0 12Z" fill="#F24E1E"/>
<path d="M46 12C46 5.64873 40.8513 0.5 34.5 0.5H23V23.5H34.5C40.8513 23.5 46 18.3513 46 12Z" fill="#FF7262"/>
<path d="M0 35C0 28.6487 5.14873 23.5 11.5 23.5H23V46.5H11.5C5.14873 46.5 0 41.3513 0 35Z" fill="#A259FF"/>
<path d="M0 58C0 51.6487 5.14873 46.5 11.5 46.5H23V58C23 64.3513 17.8513 69.5 11.5 69.5C5.14873 69.5 0 64.3513 0 58Z" fill="#0ACF83"/>
</svg>
