<svg width="55" height="55" viewBox="0 0 55 55" fill="none" xmlns="http://www.w3.org/2000/svg">
<path d="M5.92976 26.1477C5.92859 30.1499 7.03156 34.0577 9.12884 37.5022L5.72919 49.2708L18.432 46.1129C21.9455 47.9264 25.882 48.8766 29.8823 48.8768H29.8928C43.0987 48.8768 53.8485 38.6884 53.8542 26.1656C53.8567 20.0974 51.3665 14.3912 46.842 10.0982C42.3184 5.80556 36.3021 3.44027 29.8919 3.4375C16.6845 3.4375 5.93541 13.6254 5.92996 26.1477" fill="url(#paint0_linear_3_2674)"/>
<path d="M2.51199 26.1169C2.51055 30.72 3.71852 35.2136 6.01504 39.1745L2.29169 52.7083L16.204 49.0768C20.0373 51.1575 24.3532 52.2545 28.7449 52.2562H28.7562C43.2197 52.2562 54.9938 40.5382 55 26.1378C55.0025 19.1589 52.2748 12.5962 47.3203 7.65945C42.365 2.72328 35.7765 0.00286963 28.7562 0C14.2902 0 2.51776 11.7163 2.51199 26.1169ZM10.7971 38.4924L10.2776 37.6715C8.09393 34.2148 6.94134 30.2203 6.94299 26.1185C6.94773 14.1491 16.7325 4.41103 28.7644 4.41103C34.5912 4.41349 40.0671 6.67476 44.1858 10.7775C48.3042 14.8807 50.5705 20.335 50.569 26.1362C50.5637 38.1056 40.7787 47.8449 28.7562 47.8449H28.7476C24.8329 47.8429 20.9937 46.7963 17.6455 44.8185L16.8487 44.3481L8.5928 46.503L10.7971 38.4922V38.4924Z" fill="url(#paint1_linear_3_2674)"/>
<path d="M24.4509 14.8678C24.0073 13.8049 23.5406 13.7835 23.1188 13.7649C22.7734 13.7488 22.3786 13.75 21.9841 13.75C21.5893 13.75 20.9478 13.9102 20.4056 14.5485C19.8628 15.1875 18.3333 16.7316 18.3333 19.8722C18.3333 23.013 20.4548 26.0481 20.7506 26.4744C21.0467 26.8999 24.8462 33.551 30.8638 36.1097C35.8649 38.2361 36.8826 37.8132 37.968 37.7066C39.0536 37.6003 41.4709 36.1629 41.9641 34.6722C42.4576 33.1818 42.4576 31.9043 42.3096 31.6373C42.1617 31.3713 41.7668 31.2116 41.1748 30.8925C40.5825 30.5732 37.6719 29.0289 37.1293 28.8158C36.5865 28.603 36.1919 28.4968 35.7971 29.1359C35.4022 29.7741 34.2685 31.2116 33.9229 31.6373C33.5778 32.064 33.2322 32.1171 32.6403 31.7979C32.0479 31.4776 30.1413 30.8043 27.8792 28.6298C26.1192 26.9378 24.931 24.8483 24.5856 24.2091C24.2403 23.571 24.5486 23.225 24.8455 22.9069C25.1115 22.6209 25.4377 22.1615 25.734 21.7889C26.0292 21.4161 26.1278 21.1501 26.3252 20.7244C26.5228 20.2983 26.4239 19.9255 26.2761 19.6062C26.1278 19.2869 24.9773 16.1299 24.4509 14.8678Z" fill="white"/>
<defs>
<linearGradient id="paint0_linear_3_2674" x1="29.7917" y1="49.2708" x2="29.7917" y2="3.4375" gradientUnits="userSpaceOnUse">
<stop stop-color="#1FAF38"/>
<stop offset="1" stop-color="#60D669"/>
</linearGradient>
<linearGradient id="paint1_linear_3_2674" x1="28.6459" y1="52.7083" x2="28.6459" y2="0" gradientUnits="userSpaceOnUse">
<stop stop-color="#F9F9F9"/>
<stop offset="1" stop-color="white"/>
</linearGradient>
</defs>
</svg>
