<svg width="53" height="53" viewBox="0 0 53 53" fill="none" xmlns="http://www.w3.org/2000/svg">
<g clip-path="url(#clip0_3_2678)">
<path d="M26.5 0C19.4734 0 12.7283 2.79368 7.76367 7.7616C2.79394 12.7315 0.00137663 19.4716 0 26.5C0 33.5254 2.79492 40.2705 7.76367 45.2384C12.7283 50.2063 19.4734 53 26.5 53C33.5266 53 40.2717 50.2063 45.2363 45.2384C50.2051 40.2705 53 33.5254 53 26.5C53 19.4746 50.2051 12.7295 45.2363 7.7616C40.2717 2.79368 33.5266 0 26.5 0Z" fill="url(#paint0_linear_3_2678)"/>
<path d="M11.9954 26.2201C19.7218 22.8546 24.8727 20.6356 27.4482 19.5636C34.8102 16.5025 36.3381 15.9708 37.336 15.9528C37.5554 15.9493 38.044 16.0035 38.3629 16.2613C38.6279 16.4787 38.7024 16.7726 38.7397 16.979C38.7728 17.1853 38.8183 17.6552 38.7811 18.0221C38.3836 22.2124 36.6569 32.3809 35.7791 37.0743C35.4106 39.0602 34.6777 39.726 33.9697 39.791C32.4293 39.9326 31.2617 38.7741 29.7711 37.7973C27.4399 36.2681 26.1232 35.3166 23.8583 33.8248C21.2414 32.1006 22.939 31.1528 24.4297 29.6042C24.8189 29.1989 31.6012 23.0314 31.7296 22.472C31.7461 22.402 31.7627 22.1412 31.6054 22.0037C31.4522 21.8658 31.2244 21.913 31.0588 21.9503C30.8228 22.0033 27.1004 24.4661 19.8791 29.3384C18.8233 30.0647 17.8668 30.4187 17.0055 30.4001C16.0615 30.3798 14.2396 29.8651 12.8856 29.4254C11.2293 28.8858 9.90849 28.6005 10.0244 27.6842C10.0824 27.2072 10.7408 26.719 11.9954 26.2201Z" fill="white"/>
</g>
<defs>
<linearGradient id="paint0_linear_3_2678" x1="26.5" y1="0" x2="26.5" y2="53" gradientUnits="userSpaceOnUse">
<stop stop-color="#2AABEE"/>
<stop offset="1" stop-color="#229ED9"/>
</linearGradient>
<clipPath id="clip0_3_2678">
<rect width="53" height="53" fill="white"/>
</clipPath>
</defs>
</svg>
